<svg aria-hidden="true" style="position: absolute; width: 0; height: 0; overflow: hidden;" version="1.1" xmlns="http://www.w3.org/2000/svg" xmlns:xlink="http://www.w3.org/1999/xlink">
<defs>
<symbol id="icon-whatsapp" viewBox="0 0 32 32">
<path  d="M17.161 31.995c-0.808 0-1.615 0-2.423 0-0.040-0.081-0.116-0.050-0.177-0.056-0.601-0.061-1.201-0.136-1.792-0.262-6.718-1.423-11.69-6.774-12.628-13.557-0.045-0.318-0.030-0.651-0.136-0.959 0-0.772 0-1.55 0-2.322 0.066-0.035 0.045-0.101 0.050-0.156 0.050-0.631 0.141-1.252 0.262-1.873 1.327-6.647 6.789-11.755 13.542-12.669 0.293-0.040 0.601-0.015 0.878-0.136 0.792 0 1.58 0 2.372 0 0.045 0.076 0.121 0.045 0.182 0.050 0.636 0.056 1.272 0.136 1.893 0.273 6.718 1.428 11.674 6.758 12.618 13.557 0.045 0.318 0.030 0.646 0.136 0.959 0 0.792 0 1.58 0 2.372-0.076 0.040-0.050 0.116-0.056 0.182-0.061 0.601-0.141 1.201-0.257 1.797-1.322 6.642-6.789 11.76-13.542 12.669-0.303 0.035-0.626 0.020-0.924 0.131zM6.794 24.555c0.151-0.040 0.237-0.066 0.323-0.091 1.489-0.474 2.978-0.944 4.462-1.423 0.151-0.050 0.278-0.045 0.424 0.030 1.756 0.909 3.619 1.206 5.572 0.914 4.941-0.747 8.328-5.355 7.566-10.281-0.787-5.057-5.688-8.479-10.695-7.47-6.112 1.232-9.181 7.899-6.133 13.32 0.076 0.136 0.081 0.252 0.030 0.399-0.293 0.843-0.575 1.686-0.858 2.529-0.222 0.671-0.449 1.343-0.691 2.074z"></path>
<path  d="M9.075 22.289c0.288-0.853 0.565-1.686 0.858-2.519 0.061-0.177 0.045-0.303-0.061-0.459-3.018-4.416-0.535-10.554 4.704-11.639 4.28-0.888 8.328 1.827 9.126 6.122 0.737 3.972-2.019 7.97-6.011 8.717-1.979 0.368-3.826 0.045-5.542-1.009-0.121-0.076-0.222-0.081-0.348-0.040-0.808 0.262-1.615 0.52-2.423 0.777-0.086 0.025-0.167 0.076-0.303 0.050zM11.765 13.083c-0.005 0.182 0.030 0.399 0.081 0.611 0.167 0.702 0.56 1.287 0.959 1.867 1.257 1.827 2.907 3.094 5.083 3.639 0.469 0.116 0.919 0.141 1.388 0.030 0.919-0.222 1.544-0.989 1.519-1.878-0.005-0.126-0.025-0.232-0.151-0.293-0.621-0.313-1.242-0.631-1.888-0.893-0.187-0.076-0.333-0.015-0.454 0.151-0.207 0.278-0.434 0.535-0.651 0.803-0.126 0.162-0.278 0.192-0.469 0.116-1.307-0.51-2.307-1.383-3.038-2.574-0.126-0.207-0.101-0.363 0.066-0.54 0.202-0.212 0.404-0.429 0.53-0.702 0.056-0.121 0.076-0.242 0.025-0.363-0.247-0.596-0.5-1.191-0.752-1.787-0.086-0.197-0.227-0.303-0.454-0.283-0.116 0.010-0.232-0.015-0.353-0.020-0.237-0.010-0.444 0.066-0.621 0.232-0.525 0.495-0.813 1.105-0.818 1.883z"></path>
</symbol>
<symbol id="icon-twitter" viewBox="0 0 32 32">
<path  d="M17.11 31.995c-0.772 0-1.55 0-2.322 0-0.050-0.081-0.136-0.045-0.207-0.056-0.611-0.061-1.221-0.141-1.817-0.267-6.718-1.428-11.68-6.763-12.618-13.557-0.040-0.303-0.020-0.616-0.136-0.909 0-0.808 0-1.615 0-2.423 0.076-0.040 0.050-0.116 0.056-0.182 0.061-0.601 0.141-1.201 0.257-1.797 1.312-6.632 6.794-11.755 13.532-12.664 0.313-0.040 0.631-0.025 0.934-0.136 0.772 0 1.55 0 2.322 0 0.045 0.076 0.121 0.045 0.182 0.050 0.636 0.056 1.272 0.136 1.893 0.273 6.713 1.423 11.68 6.763 12.618 13.557 0.045 0.318 0.030 0.646 0.136 0.959 0 0.792 0 1.58 0 2.372-0.076 0.040-0.050 0.116-0.056 0.182-0.061 0.601-0.141 1.201-0.257 1.797-1.322 6.642-6.789 11.755-13.537 12.669-0.323 0.035-0.661 0.020-0.979 0.131zM26.014 11.276c-0.601 0.232-1.206 0.429-1.862 0.469 0.676-0.5 1.186-1.11 1.428-1.923-0.651 0.343-1.322 0.601-2.029 0.777-0.172 0.040-0.288 0.015-0.419-0.111-0.646-0.616-1.418-0.959-2.312-0.994-2.291-0.091-4.018 1.711-3.871 4.018 0.010 0.162 0.151 0.368 0.005 0.464-0.116 0.076-0.328 0.015-0.495-0.005-2.751-0.323-5.037-1.524-6.854-3.619-0.151-0.177-0.197-0.146-0.293 0.040-0.752 1.529-0.343 3.402 0.999 4.492 0.066 0.050 0.156 0.086 0.187 0.192-0.56-0.020-1.065-0.187-1.58-0.434-0.010 0.893 0.268 1.645 0.792 2.317 0.53 0.676 1.232 1.095 2.054 1.332-0.439 0.116-0.868 0.167-1.307 0.091-0.212-0.035-0.252 0.015-0.167 0.217 0.495 1.141 1.327 1.878 2.529 2.196 0.242 0.066 0.5 0.091 0.787 0.141-1.59 1.201-3.346 1.681-5.315 1.519 0.040 0.050 0.050 0.071 0.061 0.076 0.066 0.040 0.126 0.086 0.192 0.121 2.726 1.555 5.608 1.862 8.585 0.934 4.32-1.348 7.268-5.597 7.167-10.231-0.005-0.167 0.040-0.273 0.177-0.379 0.606-0.469 1.151-1.004 1.56-1.661 0.010-0.010 0.020-0.020 0.030-0.030-0.010-0.010-0.030-0.010-0.050-0.010z"></path>
<path fill="#fdfefe" style="fill: var(--color2, #fdfefe)" d="M26.014 11.276c0.020 0 0.040 0.005 0.061 0.005-0.010 0.010-0.020 0.020-0.030 0.030-0.010-0.010-0.020-0.025-0.030-0.035z"></path>
</symbol>
<symbol id="icon-instagram" viewBox="0 0 32 32">
<path  d="M17.11 31.995c-0.792 0-1.58 0-2.372 0-0.040-0.076-0.116-0.050-0.182-0.056-0.611-0.061-1.216-0.141-1.817-0.267-6.713-1.408-11.705-6.763-12.649-13.557-0.040-0.303-0.020-0.616-0.136-0.909 0-0.808 0-1.615 0-2.423 0.076-0.040 0.050-0.116 0.056-0.182 0.081-0.823 0.212-1.63 0.404-2.433 1.514-6.314 6.965-11.205 13.391-12.023 0.358-0.045 0.732-0.040 1.085-0.141 0.742 0 1.479 0 2.221 0 0.045 0.076 0.121 0.045 0.182 0.050 0.626 0.056 1.252 0.141 1.867 0.268 6.708 1.403 11.71 6.768 12.649 13.557 0.045 0.318 0.030 0.646 0.136 0.959 0 0.772 0 1.55 0 2.322-0.071 0.045-0.045 0.121-0.050 0.182-0.056 0.626-0.136 1.252-0.267 1.867-1.413 6.718-6.763 11.7-13.557 12.644-0.323 0.045-0.651 0.030-0.959 0.141zM15.98 7.086c-0.495 0-0.994-0.010-1.489 0-1.166 0.030-2.342-0.030-3.498 0.182-1.873 0.348-3.195 1.378-3.856 3.195-0.262 0.717-0.338 1.469-0.368 2.231-0.076 1.721-0.045 3.447-0.045 5.168 0 1.075-0.015 2.155 0.146 3.22 0.298 1.974 1.327 3.382 3.235 4.078 0.676 0.247 1.388 0.338 2.105 0.363 2.503 0.086 5.012 0.086 7.515 0 1.045-0.035 2.059-0.217 2.973-0.757 1.61-0.959 2.332-2.453 2.428-4.26 0.151-2.786 0.141-5.582 0-8.368-0.056-1.090-0.358-2.12-1.035-3.008-0.994-1.307-2.372-1.852-3.952-1.968-1.388-0.091-2.776-0.066-4.159-0.076z"></path>
<path  d="M8.384 16.343c-0.005-1.226-0.005-2.453 0.050-3.68 0.020-0.439 0.061-0.873 0.167-1.297 0.348-1.398 1.353-2.281 2.816-2.478 1.035-0.141 2.079-0.121 3.119-0.131 1.59-0.015 3.18-0.015 4.765 0.035 0.53 0.015 1.060 0.045 1.575 0.167 1.439 0.343 2.337 1.358 2.539 2.847 0.131 0.979 0.116 1.963 0.126 2.948 0.020 1.59 0.015 3.18-0.025 4.765-0.015 0.57-0.040 1.146-0.167 1.701-0.323 1.413-1.302 2.327-2.751 2.549-0.994 0.151-1.994 0.146-2.993 0.146-1.767 0.005-3.533 0.030-5.295-0.045-0.444-0.020-0.888-0.061-1.322-0.172-1.418-0.363-2.221-1.297-2.453-2.721-0.177-1.080-0.141-2.18-0.151-3.271-0.005-0.454 0-0.909 0-1.363zM15.975 11.594c-2.625 0-4.755 2.12-4.76 4.734s2.125 4.75 4.739 4.76c2.614 0.010 4.744-2.12 4.75-4.739 0.010-2.63-2.11-4.755-4.729-4.755zM22.006 11.397c0-0.611-0.49-1.1-1.105-1.1-0.611 0-1.11 0.5-1.105 1.105 0 0.601 0.51 1.11 1.11 1.105 0.606 0 1.1-0.5 1.1-1.11z"></path>
<path  d="M15.955 13.254c1.706-0.005 3.079 1.353 3.094 3.064 0.010 1.711-1.373 3.104-3.079 3.104-1.691 0-3.084-1.388-3.084-3.084-0.010-1.696 1.363-3.074 3.069-3.084z"></path>
</symbol>
<symbol id="icon-facebook" viewBox="0 0 32 32">
<path  d="M0.005 17.161c0-0.772 0-1.55 0-2.322 0.066-0.035 0.045-0.101 0.050-0.156 0.050-0.631 0.141-1.252 0.262-1.873 1.327-6.647 6.794-11.76 13.537-12.669 0.313-0.040 0.631-0.025 0.934-0.136 0.772 0 1.55 0 2.322 0 0.045 0.076 0.121 0.045 0.182 0.050 0.636 0.056 1.272 0.136 1.893 0.273 6.713 1.428 11.685 6.774 12.618 13.552 0.045 0.338 0.035 0.681 0.136 1.009 0 0.757 0 1.514 0 2.271-0.066 0.035-0.045 0.101-0.050 0.156-0.050 0.631-0.141 1.252-0.262 1.873-1.327 6.647-6.789 11.755-13.537 12.669-0.313 0.040-0.631 0.025-0.929 0.136-0.808 0-1.615 0-2.423 0-0.040-0.081-0.116-0.050-0.177-0.056-0.601-0.061-1.201-0.141-1.792-0.262-6.713-1.423-11.695-6.773-12.628-13.557-0.040-0.318-0.025-0.651-0.136-0.959zM17.504 21.396c0-1.605 0-3.21 0-4.82 0-0.379-0.040-0.328 0.343-0.328 0.767-0.005 1.529-0.005 2.297 0 0.151 0 0.227-0.030 0.242-0.197 0.081-0.994 0.167-1.994 0.262-2.988 0.020-0.227-0.061-0.262-0.262-0.257-0.883 0.010-1.767 0.005-2.65 0.005-0.141 0-0.237-0.005-0.237-0.192 0.010-0.691 0-1.378 0.015-2.069 0.015-0.575 0.242-0.797 0.818-0.838 0.111-0.010 0.217-0.005 0.328-0.005 0.596 0 1.196 0 1.792 0 0.116 0 0.212 0.005 0.212-0.162-0.005-1.075-0.005-2.15 0-3.23 0-0.116-0.035-0.172-0.156-0.167-1.292 0.030-2.594-0.086-3.881 0.081-2.034 0.268-3.114 1.444-3.2 3.498-0.040 0.934-0.025 1.867-0.015 2.801 0 0.237-0.071 0.298-0.303 0.293-0.54-0.015-1.075 0-1.615-0.010-0.172-0.005-0.232 0.050-0.232 0.227 0.005 1.009 0.010 2.019 0 3.028 0 0.202 0.071 0.237 0.247 0.232 0.515-0.010 1.025-0.005 1.539-0.005 0.353 0 0.353 0 0.353 0.353 0 3.195 0.005 6.39-0.005 9.585 0 0.247 0.066 0.308 0.308 0.308 1.176-0.010 2.352-0.010 3.533 0 0.207 0 0.273-0.050 0.273-0.267-0.010-1.63-0.005-3.25-0.005-4.876z"></path>
</symbol>
</defs>
</svg>
